HIERARCHY
ROOT Hips
{
	OFFSET 0.000000 0.000000 0.000000 
	CHANNELS 6 Xposition Yposition Zposition Yrotation Zrotation Xrotation 
	JOINT Lumbar
	{
		OFFSET 0.000000 0.000000 0.000000 
		CHANNELS 3 Zrotation Xrotation Yrotation
		JOINT Neck
		{
			OFFSET 0.000000 0.445665 0.000000 
			CHANNELS 3 Zrotation Xrotation Yrotation
			End Site
			{
				OFFSET 0.000000 0.227535 0.000000 
			}
		}
		JOINT RightShoulder
		{
			OFFSET 0.019635 0.377685 0.194865 
			CHANNELS 3 Zrotation Xrotation Yrotation
			JOINT RightElbow
			{
				OFFSET 0.000000 -0.243375 0.000000 
				CHANNELS 2 Zrotation Yrotation
				JOINT RightWrist
				{
					OFFSET 0.000000 -0.264825 0.000000 
					CHANNELS 2 Zrotation Xrotation
					End Site
					{
						OFFSET 0.006600 -0.176220 0.000990 
					}
				}
			}
		}
		JOINT LeftShoulder
		{
			OFFSET 0.019635 0.377685 -0.194865 
			CHANNELS 3 Zrotation Xrotation Yrotation
			JOINT LeftElbow
			{
				OFFSET 0.000000 -0.243375 0.000000 
				CHANNELS 2 Zrotation Yrotation
				JOINT LeftWrist
				{
					OFFSET 0.000000 -0.264825 0.000000 
					CHANNELS 2 Zrotation Xrotation
					End Site
					{
						OFFSET 0.006600 -0.176220 -0.000990 
					}
				}
			}
		}
	}
	JOINT RightHip
	{
		OFFSET 0.052140 -0.069960 0.075570 
		CHANNELS 3 Zrotation Xrotation Yrotation
		JOINT RightKnee
		{
			OFFSET 0.000000 -0.402270 0.000000 
			CHANNELS 1 Zrotation
			JOINT RightAnkle
			{
				OFFSET 0.000000 -0.404085 0.000000 
				CHANNELS 3 Zrotation Xrotation Yrotation
				End Site
				{
					OFFSET 0.204105 -0.089430 0.008415 
				}
			}
		}
	}
	JOINT LeftHip
	{
		OFFSET 0.052140 -0.069960 -0.075570 
		CHANNELS 3 Zrotation Xrotation Yrotation
		JOINT LeftKnee
		{
			OFFSET 0.000000 -0.402270 0.000000 
			CHANNELS 1 Zrotation
			JOINT LeftAnkle
			{
				OFFSET 0.000000 -0.404085 0.000000 
				CHANNELS 3 Zrotation Xrotation Yrotation
				End Site
				{
					OFFSET 0.204105 -0.089430 -0.008415 
				}
			}
		}
	}
}
MOTION
Frames: 11
Frame Time: 0.02
0.03134 -0.00207 0.03083 -170.49705 -38.96947 -3.92729 39.98138 1.08436 10.76485 -2.20698 6.72651 -2.11818 49.07203 -43.93355 55.5415 22.86094 106.64326 11.20908 5.84776 18.04191 25.23368 -40.89501 93.51293 -100.99911 8.0118 -5.03557 44.64336 -4.66089 -14.18736 -22.21369 -7.77853 -3.76859 -4.13674 53.22161 9.50365 3.43703 -28.46974 -7.2867 0.97152 2.73969
0.03173 -0.00185 0.03244 -170.44608 -38.9577 -3.91558 39.87843 1.01695 11.39597 -2.2265 7.13856 -2.11819 51.98767 -42.62563 55.70282 23.0356 104.46116 8.92541 5.43617 18.0807 24.96574 -41.12453 93.11515 -99.84945 7.19203 -4.89131 44.6631 -4.72588 -13.90046 -22.25595 -7.81433 -3.79079 -4.14837 53.2306 9.42149 3.61681 -28.44823 -7.28837 0.94453 2.72827
0.03209 -0.00156 0.03409 -170.73951 -38.98538 -3.91149 39.84649 0.96846 11.95483 -2.3334 7.52939 -2.1182 54.67366 -40.90043 55.6102 24.52482 101.57482 7.01677 4.57513 17.87373 24.78167 -41.00057 92.82894 -98.27506 6.37997 -4.50079 44.78869 -4.82079 -13.61808 -22.32448 -7.82972 -3.78573 -4.14479 53.21656 9.29782 3.63594 -28.42073 -7.27887 0.9627 2.73867
0.03246 -0.00131 0.03571 -170.88076 -38.99441 -3.90234 39.78039 0.9101 12.52639 -2.40488 7.92031 -2.1182 57.39508 -39.35264 55.61412 25.49753 99.02851 5.0114 3.92032 17.76635 24.57198 -41.01161 92.50531 -96.89624 5.58559 -4.21415 44.8649 -4.90411 -13.33842 -22.38057 -7.85306 -3.79196 -4.14759 53.21099 9.1955 3.74009 -28.39717 -7.27458 0.95939 2.73865
0.03287 -0.00103 0.03737 -171.00904 -39.00301 -3.89864 39.7198 0.85725 13.18268 -2.46004 8.35411 -2.11821 60.43437 -37.83567 55.69084 26.14057 96.3626 2.65048 3.25908 17.709 24.30888 -41.13068 92.11872 -95.48699 4.68421 -3.96238 44.94403 -4.97953 -13.03323 -22.43963 -7.88216 -3.80248 -4.15252 53.20825 9.08452 3.80765 -28.36785 -7.2699 0.95928 2.74035
0.03319 -0.00079 0.03897 -171.24298 -39.02432 -3.88614 39.6663 0.79736 13.64478 -2.56875 8.69138 -2.11822 62.73951 -36.1754 55.5618 27.78411 93.80145 1.1402 2.50713 17.48967 24.17806 -40.9414 91.89313 -94.0584 4.01635 -3.58314 45.044 -5.07809 -12.78482 -22.49817 -7.89445 -3.7978 -4.14947 53.19768 8.98113 3.90767 -28.34952 -7.26333 0.96351 2.74379
0.03331 -0.00068 0.04039 -171.69753 -39.05725 -3.84469 39.60536 0.7136 13.59626 -2.81006 8.78177 -2.11822 63.16062 -34.07481 54.87995 31.78634 91.5856 1.83935 1.57261 16.88119 24.38054 -39.98083 92.07584 -92.54695 3.96687 -2.86119 45.16487 -5.23568 -12.6859 -22.55189 -7.86425 -3.75711 -4.12775 53.15386 8.90708 4.13778 -28.36076 -7.25398 0.96932 2.747
0.03334 -0.00062 0.04176 -172.24309 -39.10429 -3.79487 39.55091 0.6221 13.35349 -3.10088 8.7728 -2.11823 62.83117 -31.87385 54.00699 36.75768 89.52405 3.39624 0.56907 16.1191 24.71462 -38.7237 92.41898 -91.0548 4.15928 -2.02734 45.30495 -5.41493 -12.6455 -22.60353 -7.81808 -3.70232 -4.09865 53.10659 8.84201 4.40331 -28.38376 -7.24315 0.97799 2.75124
0.03341 -0.00054 0.04315 -172.73837 -39.15459 -3.75082 39.50035 0.5339 13.1946 -3.36488 8.79979 -2.11823 62.78659 -29.81473 53.25505 41.34311 87.47245 4.59741 -0.37577 15.42816 24.99682 -37.60583 92.69582 -89.64472 4.25875 -1.27837 45.44391 -5.58276 -12.58347 -22.65406 -7.77981 -3.65442 -4.07316 53.07301 8.77387 4.65058 -28.40286 -7.23317 0.98502 2.75487
0.0335 -0.00043 0.04455 -173.28516 -39.16638 -3.69849 39.42433 0.447 13.05173 -3.65034 8.86523 -2.11824 62.97481 -27.33037 52.35787 45.76553 85.06043 5.66693 -1.45044 14.7211 25.25145 -36.45482 92.94975 -87.84384 4.28492 -0.38063 45.55573 -5.75871 -12.50182 -22.71423 -7.73783 -3.60324 -4.04592 52.98803 8.70062 4.90399 -28.41554 -7.22208 0.99493 2.75978
0.03351 -0.00039 0.04593 -173.73957 -39.25996 -3.66157 39.40076 0.35564 12.8303 -3.90151 8.82683 -2.11824 62.49892 -25.71872 51.71122 50.71421 83.44168 7.20975 -2.26666 14.0167 25.58995 -35.30938 93.28654 -86.85746 4.52312 0.23483 45.7256 -5.92199 -12.4733 -22.75343 -7.70039 -3.55626 -4.02096 53.00877 8.63995 5.15212 -28.44461 -7.21308 0.99907 2.76205
